<svg width="64" height="64" viewBox="0 0 64 64" fill="none" xmlns="http://www.w3.org/2000/svg">
<path fill-rule="evenodd" clip-rule="evenodd" d="M32 64C49.6731 64 64 49.6731 64 32C64 14.3269 49.6731 0 32 0C14.3269 0 0 14.3269 0 32C0 49.6731 14.3269 64 32 64ZM47.7248 12.1376L40 16L32 20L24 24V31.7511C24 31.8654 23.8796 31.9398 23.7774 31.8887L16.085 28.0425C16.0329 28.0165 16 27.9632 16 27.9049V20L24 16L32 12L39.9312 8.0344C39.9745 8.01274 40.0255 8.01274 40.0688 8.0344L47.7248 11.8624C47.8382 11.9191 47.8382 12.0809 47.7248 12.1376ZM40 32L47.7248 28.1376C47.8382 28.0809 47.8382 27.9191 47.7248 27.8624L40.0688 24.0344C40.0255 24.0127 39.9745 24.0127 39.9312 24.0344L32 28L24 32L16 36V43.9049C16 43.9632 16.0329 44.0165 16.085 44.0425L23.7774 47.8887C23.8796 47.9398 24 47.8654 24 47.7511V40L32 36L40 32ZM40.001 48L47.7258 44.1376C47.8392 44.0809 47.8392 43.9191 47.7258 43.8624L40.1042 40.0516C40.0392 40.0191 39.9627 40.0191 39.8978 40.0516L32.001 44L24.001 48L16.2762 51.8624C16.1628 51.9191 16.1628 52.0809 16.2762 52.1376L23.9322 55.9656C23.9755 55.9873 24.0265 55.9873 24.0698 55.9656L32.001 52L40.001 48Z" fill="white"/>
</svg>
